<?xml version="1.0" encoding="UTF-8" standalone="no"?>
<svg
   xmlns:dc="http://purl.org/dc/elements/1.1/"
   xmlns:cc="http://creativecommons.org/ns#"
   xmlns:rdf="http://www.w3.org/1999/02/22-rdf-syntax-ns#"
   xmlns:svg="http://www.w3.org/2000/svg"
   xmlns="http://www.w3.org/2000/svg"
   viewBox="0 0 159.54668 53.333332"
   height="53.333332"
   width="159.54668"
   xml:space="preserve"
   id="svg2"
   version="1.1"><metadata
     id="metadata8"><rdf:RDF><cc:Work
         rdf:about=""><dc:format>image/svg+xml</dc:format><dc:type
           rdf:resource="http://purl.org/dc/dcmitype/StillImage" /><dc:title></dc:title></cc:Work></rdf:RDF></metadata><defs
     id="defs6" /><g
     transform="matrix(1.3333333,0,0,-1.3333333,0,53.333333)"
     id="g10"><g
       transform="scale(0.1)"
       id="g12"><path
         id="path14"
         style="fill:#b2b1b1;fill-opacity:1;fill-rule:nonzero;stroke:none"
         d="M 1101.34,400 H 95.3477 c -3.668,0 -7.2891,0 -10.9493,-0.02 -3.0586,-0.019 -6.0976,-0.078 -9.1875,-0.125 -6.6562,-0.167 -13.3945,-0.578 -20.039,-1.769 -6.6953,-1.172 -12.9141,-3.172 -19.0078,-6.27 C 30.1758,388.75 24.707,384.766 19.9766,380.031 15.1914,375.293 11.2266,369.805 8.19531,363.82 5.08203,357.734 3.10938,351.484 1.94531,344.785 0.738281,338.164 0.324219,331.465 0.152344,324.766 0.0585938,321.699 0.0507813,318.621 0,315.555 0,311.934 0,308.301 0,304.641 V 95.3516 C 0,91.6602 0,88.0469 0,84.4141 0.0507813,81.3086 0.0585938,78.3008 0.152344,75.1953 0.324219,68.4961 0.738281,61.7969 1.94531,55.1758 3.10938,48.4766 5.08203,42.1953 8.19531,36.1328 11.2266,30.1758 15.1914,24.6875 19.9766,19.9883 24.707,15.2148 30.1758,11.2383 36.1641,8.20313 42.2578,5.07813 48.4766,3.10547 55.1719,1.89453 61.8164,0.703125 68.5547,0.3125 75.2109,0.128906 78.3008,0.0585938 81.3398,0.0195313 84.3984,0.0195313 88.0586,0 91.6797,0 95.3477,0 H 1101.34 c 3.61,0 7.25,0 10.84,0.0195313 3.06,0 6.18,0.0390625 9.23,0.1093747 6.7,0.183594 13.42,0.574219 20,1.765624 6.7,1.21094 12.92,3.1836 19.08,6.3086 5.97,3.03517 11.44,7.01167 16.18,11.78517 4.75,4.6992 8.72,10.1875 11.8,16.1445 3.07,6.0625 5.07,12.3438 6.19,19.043 1.24,6.6211 1.62,13.3203 1.87,20.0195 0.03,3.1055 0.03,6.1133 0.03,9.2188 0.08,3.6328 0.08,7.2461 0.08,10.9375 V 304.641 c 0,3.66 0,7.293 -0.08,10.914 0,3.066 0,6.144 -0.03,9.211 -0.25,6.699 -0.63,13.398 -1.87,20.019 -1.12,6.699 -3.12,12.949 -6.19,19.035 -3.08,5.985 -7.05,11.473 -11.8,16.211 -4.74,4.735 -10.21,8.719 -16.18,11.785 -6.16,3.098 -12.38,5.098 -19.08,6.27 -6.58,1.191 -13.3,1.602 -20,1.769 -3.05,0.047 -6.17,0.106 -9.23,0.125 -3.59,0.02 -7.23,0.02 -10.84,0.02 v 0" /><path
         id="path16"
         style="fill:#040403;fill-opacity:1;fill-rule:nonzero;stroke:none"
         d="m 84.4492,8.75 c -3.0469,0 -6.0195,0.03906 -9.0429,0.10547 -5.5899,0.16016 -12.2227,0.46875 -18.6915,1.63283 -6.1054,1.1055 -11.5273,2.9023 -16.5664,5.4805 -5.2148,2.6445 -9.9023,6.0625 -13.9726,10.164 -4.1406,4.0625 -7.543,8.7305 -10.2031,13.9649 -2.5938,5.0468 -4.3672,10.4687 -5.4297,16.5742 -1.22269,6.7265 -1.53519,13.5547 -1.66409,18.75 -0.06641,2.1054 -0.14844,9.1289 -0.14844,9.1289 V 315.555 c 0,0 0.08984,6.918 0.14844,8.949 0.1289,5.238 0.4414,12.059 1.65239,18.719 1.0703,6.136 2.8437,11.554 5.4375,16.621 2.6562,5.246 6.0625,9.937 10.1484,13.98 4.1367,4.141 8.8437,7.567 14.0234,10.223 5.1367,2.609 10.5547,4.391 16.5352,5.441 6.7344,1.207 13.5586,1.508 18.7539,1.641 l 9.0234,0.121 H 1112.13 l 9.13,-0.125 c 5.13,-0.129 11.96,-0.43 18.59,-1.629 6.02,-1.055 11.48,-2.844 16.71,-5.476 5.13,-2.629 9.82,-6.055 13.91,-10.157 4.11,-4.062 7.52,-8.781 10.24,-14.043 2.58,-5.113 4.33,-10.527 5.36,-16.488 1.15,-6.309 1.51,-12.789 1.73,-18.875 0.03,-2.832 0.03,-5.871 0.03,-8.902 0.09,-3.75 0.09,-7.317 0.09,-10.914 V 95.3516 c 0,-3.6328 0,-7.1758 -0.09,-10.75 0,-3.2539 0,-6.2344 -0.04,-9.2969 -0.21,-5.8906 -0.57,-12.3672 -1.71,-18.5352 -1.04,-6.1328 -2.79,-11.5547 -5.4,-16.7031 -2.69,-5.1953 -6.12,-9.8906 -10.15,-13.8555 -4.14,-4.1796 -8.83,-7.5898 -13.99,-10.2265 -5.2,-2.6328 -10.49,-4.3828 -16.69,-5.4961 -6.4,-1.16408 -13.03,-1.47267 -18.69,-1.63283 -2.92,-0.06641 -6,-0.10547 -8.98,-0.10547 L 1101.34,8.73047 84.4492,8.75" /><path
         id="path18"
         style="fill:#ffffff;fill-opacity:1;fill-rule:nonzero;stroke:none"
         d="m 247.691,196.992 c -0.253,27.512 22.52,40.895 23.563,41.524 -12.895,18.804 -32.891,21.379 -39.91,21.578 -16.793,1.761 -33.071,-10.051 -41.633,-10.051 -8.719,0 -21.895,9.875 -36.082,9.582 -18.262,-0.285 -35.356,-10.859 -44.727,-27.281 -19.3395,-33.481 -4.918,-82.696 13.61,-109.754 9.269,-13.266 20.101,-28.0705 34.273,-27.5392 13.875,0.5742 19.055,8.8442 35.797,8.8442 16.59,0 21.445,-8.8442 35.91,-8.5122 14.883,0.2422 24.262,13.3162 33.203,26.6952 10.711,15.195 15.016,30.156 15.184,30.926 -0.348,0.117 -28.906,11.012 -29.188,43.988" /><path
         id="path20"
         style="fill:#ffffff;fill-opacity:1;fill-rule:nonzero;stroke:none"
         d="m 220.371,277.891 c 7.457,9.332 12.563,22.019 11.149,34.906 -10.801,-0.477 -24.301,-7.465 -32.075,-16.598 -6.882,-8.039 -13.031,-21.222 -11.441,-33.609 12.129,-0.906 24.586,6.117 32.367,15.301" /><path
         id="path22"
         style="fill:#ffffff;fill-opacity:1;fill-rule:nonzero;stroke:none"
         d="m 380.59,144.094 h 37.519 l -18.496,54.469 h -0.515 z m 42.433,-15.489 H 375.688 L 364.32,95.0391 h -20.047 l 44.832,124.1799 h 20.833 L 454.77,95.0391 h -20.391 l -11.356,33.5659" /><path
         id="path24"
         style="fill:#ffffff;fill-opacity:1;fill-rule:nonzero;stroke:none"
         d="m 532.496,140.305 c 0,18.328 -9.473,30.379 -23.926,30.379 -14.199,0 -23.75,-12.305 -23.75,-30.379 0,-18.242 9.551,-30.461 23.75,-30.461 14.453,0 23.926,11.965 23.926,30.461 z m 19.102,0 c 0,-28.137 -15.059,-46.2112 -37.785,-46.2112 -12.899,0 -23.145,5.7695 -28.485,15.8402 h -0.43 V 65.0898 H 466.313 V 185.574 h 17.988 V 170.52 h 0.344 c 5.164,9.714 16.179,16.003 28.828,16.003 22.976,0 38.125,-18.164 38.125,-46.218" /><path
         id="path26"
         style="fill:#ffffff;fill-opacity:1;fill-rule:nonzero;stroke:none"
         d="m 632.145,140.305 c 0,18.328 -9.473,30.379 -23.926,30.379 -14.199,0 -23.75,-12.305 -23.75,-30.379 0,-18.242 9.551,-30.461 23.75,-30.461 14.453,0 23.926,11.965 23.926,30.461 z m 19.101,0 c 0,-28.137 -15.058,-46.2112 -37.785,-46.2112 -12.898,0 -23.145,5.7695 -28.484,15.8402 h -0.43 V 65.0898 H 565.961 V 185.574 h 17.988 V 170.52 h 0.344 c 5.164,9.714 16.18,16.003 28.828,16.003 22.977,0 38.125,-18.164 38.125,-46.218" /><path
         id="path28"
         style="fill:#ffffff;fill-opacity:1;fill-rule:nonzero;stroke:none"
         d="m 717.105,129.641 c 1.375,-12.317 13.34,-20.403 29.688,-20.403 15.664,0 26.934,8.086 26.934,19.192 0,9.636 -6.797,15.41 -22.891,19.363 l -16.094,3.879 c -22.804,5.508 -33.39,16.172 -33.39,33.473 0,21.425 18.671,36.144 45.187,36.144 26.238,0 44.227,-14.719 44.832,-36.144 h -18.758 c -1.125,12.394 -11.367,19.875 -26.34,19.875 -14.968,0 -25.214,-7.571 -25.214,-18.582 0,-8.782 6.543,-13.95 22.55,-17.903 l 13.68,-3.359 c 25.481,-6.028 36.066,-16.262 36.066,-34.422 0,-23.234 -18.507,-37.7852 -47.941,-37.7852 -27.539,0 -46.133,14.2112 -47.332,36.6722 h 19.023" /><path
         id="path30"
         style="fill:#ffffff;fill-opacity:1;fill-rule:nonzero;stroke:none"
         d="m 833.461,207.004 v -21.43 h 17.219 v -14.715 h -17.219 v -49.914 c 0,-7.754 3.449,-11.367 11.016,-11.367 1.894,0 4.914,0.266 6.113,0.434 V 95.3828 c -2.059,-0.5195 -6.192,-0.8633 -10.32,-0.8633 -18.332,0 -25.481,6.8865 -25.481,24.4455 v 51.894 h -13.164 v 14.715 h 13.164 v 21.43 h 18.672" /><path
         id="path32"
         style="fill:#ffffff;fill-opacity:1;fill-rule:nonzero;stroke:none"
         d="m 927.602,140.305 c 0,19.539 -8.954,31.074 -24.012,31.074 -15.059,0 -24.004,-11.621 -24.004,-31.074 0,-19.621 8.945,-31.067 24.004,-31.067 15.058,0 24.012,11.446 24.012,31.067 z m -66.954,0 c 0,28.484 16.778,46.383 42.942,46.383 26.25,0 42.949,-17.899 42.949,-46.383 0,-28.567 -16.613,-46.3909 -42.949,-46.3909 -26.328,0 -42.942,17.8239 -42.942,46.3909" /><path
         id="path34"
         style="fill:#ffffff;fill-opacity:1;fill-rule:nonzero;stroke:none"
         d="m 961.859,185.574 h 17.727 v -15.41 h 0.43 c 2.839,10.246 11.101,16.359 21.774,16.359 2.67,0 4.9,-0.351 6.37,-0.695 v -17.383 c -1.47,0.61 -4.74,1.125 -8.351,1.125 -11.961,0 -19.364,-8.093 -19.364,-20.832 V 95.0391 h -18.586 v 90.5349" /><path
         id="path36"
         style="fill:#ffffff;fill-opacity:1;fill-rule:nonzero;stroke:none"
         d="m 1031.02,148.652 h 45.26 c -0.43,13.86 -9.29,22.981 -22.2,22.981 -12.82,0 -22.11,-9.297 -23.06,-22.981 z m 62.82,-27.019 c -2.5,-16.438 -18.5,-27.7189 -38.98,-27.7189 -26.34,0 -42.69,17.6489 -42.69,45.9569 0,28.399 16.44,46.817 41.91,46.817 25.05,0 40.8,-17.208 40.8,-44.657 v -6.367 h -63.95 v -1.125 c 0,-15.484 9.73,-25.644 24.36,-25.644 10.32,0 18.42,4.906 20.91,12.738 h 17.64" /><path
         id="path38"
         style="fill:#ffffff;fill-opacity:1;fill-rule:nonzero;stroke:none"
         d="m 378.547,301.363 h -0.703 l -15.676,-48.34 h -9.59 l 20.715,59.668 h 10.008 l 20.722,-59.668 h -9.968 l -15.508,48.34" /><path
         id="path40"
         style="fill:#ffffff;fill-opacity:1;fill-rule:nonzero;stroke:none"
         d="m 429.504,320.012 h 9.883 l -5.703,-14.68 h -7.778 z m 15.059,-81.961 v 41.851 c 0,7.321 -3.235,10.875 -9.512,10.875 -6.535,0 -10.473,-4.386 -10.473,-11.457 v -26.297 h -8.883 v 32.582 c 0,3.887 -1.242,5.172 -4.054,5.172 -0.703,0 -1.407,-0.039 -2.11,-0.207 v 7.36 c 1.164,0.332 2.774,0.539 4.551,0.539 5.371,0 8.848,-2.317 9.883,-7.156 l 0.129,-0.743 h 0.703 c 2.148,5.168 7.019,8.352 13.269,8.352 9.797,0 15.34,-6.035 15.34,-16.828 v -44.043 h -8.843" /><path
         id="path42"
         style="fill:#ffffff;fill-opacity:1;fill-rule:nonzero;stroke:none"
         d="m 486.34,252.152 c -12.824,0.289 -19.809,7.571 -19.809,18.731 v 27.168 h 8.684 v -25.512 c 0,-8.309 4.18,-11.992 11.125,-12.156 v 48.879 h 8.562 v -48.836 c 7.559,0.203 11.993,5.496 11.993,15.465 0,8.804 -1.2,15.339 -4.18,22.16 h 8.887 c 2.48,-4.961 4.218,-13.602 4.218,-21.043 0,-15.715 -8.105,-24.485 -20.918,-24.856 v -14.101 h -8.562 v 14.101" /><path
         id="path44"
         style="fill:#ffffff;fill-opacity:1;fill-rule:nonzero;stroke:none"
         d="m 558.723,238.051 v 41.851 c 0,7.321 -3.235,10.875 -9.512,10.875 -6.535,0 -10.473,-4.386 -10.473,-11.457 v -26.297 h -8.883 v 32.582 c 0,3.887 -1.242,5.172 -4.054,5.172 -0.703,0 -1.406,-0.039 -2.11,-0.207 v 7.36 c 1.164,0.332 2.774,0.539 4.551,0.539 5.371,0 8.848,-2.317 9.883,-7.156 l 0.129,-0.743 h 0.699 c 2.152,5.168 7.024,8.352 13.274,8.352 9.796,0 15.343,-6.035 15.343,-16.828 v -44.043 h -8.847" /><path
         id="path46"
         style="fill:#ffffff;fill-opacity:1;fill-rule:nonzero;stroke:none"
         d="m 635.676,275.145 c 0,9.179 -5.215,14.804 -11.418,14.804 -7.11,0 -11.903,-5.789 -11.903,-14.804 0,-9.715 4.668,-15.172 11.532,-15.172 7.16,0 11.789,5.703 11.789,15.172 z m -32.461,-0.125 c 0,14.019 8.887,23.031 22.742,23.031 h 24.438 v -8.016 h -11.95 v -0.703 c 3.684,-2.941 5.91,-8.355 5.91,-14.352 0,-13.812 -8.386,-22.828 -20.546,-22.828 -12.45,0 -20.594,8.848 -20.594,22.868" /><path
         id="path48"
         style="fill:#ffffff;fill-opacity:1;fill-rule:nonzero;stroke:none"
         d="m 671.879,264.973 v 25.062 h -13.984 v 8.016 h 38.007 v -8.016 h -15.136 v -22.828 c 0,-4.719 1.906,-6.781 6.496,-6.781 1.238,0 2.148,0.082 3.308,0.203 v -7.402 c -1.328,-0.243 -2.937,-0.454 -4.754,-0.454 -10.05,0 -13.937,3.477 -13.937,12.2" /><path
         id="path50"
         style="fill:#ffffff;fill-opacity:1;fill-rule:nonzero;stroke:none"
         d="m 734.242,275.559 c 0,9.757 -4.5,15.464 -11.582,15.464 -7.019,0 -11.57,-5.707 -11.57,-15.464 0,-9.801 4.461,-15.504 11.57,-15.504 7.16,0 11.582,5.703 11.582,15.504 z m -32.293,0 c 0,14.597 8.27,23.363 20.711,23.363 12.453,0 20.723,-8.727 20.723,-23.363 0,-14.598 -8.106,-23.407 -20.723,-23.407 -12.566,0 -20.711,8.809 -20.711,23.407" /></g></g></svg>