<?xml version="1.0" encoding="UTF-8" standalone="no"?>
<!-- Created with Inkscape (http://www.inkscape.org/) -->

<svg
   version="1.1"
   id="svg2"
   width="548.03198"
   height="132.28387"
   viewBox="0 0 548.03198 132.28387"
   sodipodi:docname="Fete du Cafe - Horizontal Black &amp; Blue.ai"
   xmlns:inkscape="http://www.inkscape.org/namespaces/inkscape"
   xmlns:sodipodi="http://sodipodi.sourceforge.net/DTD/sodipodi-0.dtd"
   xmlns="http://www.w3.org/2000/svg"
   xmlns:svg="http://www.w3.org/2000/svg">
  <defs
     id="defs6">
    <clipPath
       clipPathUnits="userSpaceOnUse"
       id="clipPath38">
      <path
         d="M 0,99.213 H 411.024 V 0 H 0 Z"
         id="path36" />
    </clipPath>
  </defs>
  <sodipodi:namedview
     id="namedview4"
     pagecolor="#ffffff"
     bordercolor="#000000"
     borderopacity="0.25"
     inkscape:showpageshadow="2"
     inkscape:pageopacity="0.0"
     inkscape:pagecheckerboard="0"
     inkscape:deskcolor="#d1d1d1" />
  <g
     id="g8"
     inkscape:groupmode="layer"
     inkscape:label="Fete du Cafe - Horizontal Black &amp; Blue"
     transform="matrix(1.3333333,0,0,-1.3333333,0,132.28387)">
    <path
       d="M 0,0 H 411.024 V 99.213 H 0 Z"
       style="fill:#ffffff;fill-opacity:1;fill-rule:nonzero;stroke:none"
       id="path10" />
    <g
       id="g12"
       transform="translate(0.5175,80.9919)">
      <path
         d="m 0,0 v -79.799 h 12.54 v 35.918 h 16.188 v 11.4 H 12.54 v 21.082 H 33.174 V 0 Z"
         style="fill:#000000;fill-opacity:1;fill-rule:nonzero;stroke:none"
         id="path14" />
    </g>
    <g
       id="g16"
       transform="translate(38.6733,80.9917)">
      <path
         d="M 0,0 H 34.201 V -11.399 H 12.54 V -32.491 H 29.753 V -43.889 H 12.54 v -24.51 h 21.661 v -11.4 H 0 Z"
         style="fill:#000000;fill-opacity:1;fill-rule:nonzero;stroke:none"
         id="path18" />
    </g>
    <g
       id="g20"
       transform="translate(49.8457,98.1685)">
      <path
         d="m 0,0 h 11.856 l 9.348,-13.11 h -9.462 l -5.814,6.27 -5.814,-6.27 h -9.462 z"
         style="fill:#000000;fill-opacity:1;fill-rule:nonzero;stroke:none"
         id="path22" />
    </g>
    <g
       id="g24"
       transform="translate(90.9414,69.5923)">
      <path
         d="M 0,0 H -13.109 V 11.399 H 25.65 V 0 H 12.54 V -68.4 H 0 Z"
         style="fill:#000000;fill-opacity:1;fill-rule:nonzero;stroke:none"
         id="path26" />
    </g>
    <g
       id="g28"
       transform="translate(121.5498,80.9917)">
      <path
         d="M 0,0 H 34.2 V -11.399 H 12.54 V -32.491 H 29.754 V -43.889 H 12.54 v -24.51 H 34.2 v -11.4 H 0 Z"
         style="fill:#000000;fill-opacity:1;fill-rule:nonzero;stroke:none"
         id="path30" />
    </g>
    <g
       id="g32">
      <g
         id="g34"
         clip-path="url(#clipPath38)">
        <g
           id="g40"
           transform="translate(252.7241,6.1748)">
          <path
             d="m 0,0 c -3.154,3.42 -4.73,8.244 -4.73,14.477 v 40.731 c 0,6.231 1.576,11.058 4.73,14.478 3.152,3.42 7.732,5.13 13.738,5.13 6.002,0 10.582,-1.71 13.737,-5.13 3.152,-3.42 4.73,-8.247 4.73,-14.478 V 46.773 H 20.35 v 9.233 c 0,4.94 -2.092,7.411 -6.27,7.411 -4.182,0 -6.271,-2.471 -6.271,-7.411 V 13.564 c 0,-4.863 2.089,-7.294 6.271,-7.294 4.178,0 6.27,2.431 6.27,7.294 v 12.2 H 32.205 V 14.477 C 32.205,8.244 30.627,3.42 27.475,0 24.32,-3.42 19.74,-5.131 13.738,-5.131 7.732,-5.131 3.152,-3.42 0,0"
             style="fill:#000000;fill-opacity:1;fill-rule:nonzero;stroke:none"
             id="path42" />
        </g>
        <g
           id="g44"
           transform="translate(310.2378,67.0835)">
          <path
             d="M 0,0 H -0.229 L -7.184,-50.274 -9.463,-65.891 H -21.09 L -8.096,13.908 H 8.891 L 21.887,-65.891 H 9.346"
             style="fill:#000000;fill-opacity:1;fill-rule:nonzero;stroke:none"
             id="path46" />
        </g>
        <g
           id="g48"
           transform="translate(376.3071,80.9917)">
          <path
             d="M 0,0 H 34.199 V -11.4 H 12.539 V -32.491 H 29.754 V -43.889 H 12.539 v -24.51 h 21.66 v -11.4 H 0 Z"
             style="fill:#000000;fill-opacity:1;fill-rule:nonzero;stroke:none"
             id="path50" />
        </g>
        <g
           id="g52"
           transform="translate(394.5474,98.1685)">
          <path
             d="M 0,0 H 13.68 L 1.482,-13.109 H -7.98 Z"
             style="fill:#000000;fill-opacity:1;fill-rule:nonzero;stroke:none"
             id="path54" />
        </g>
        <g
           id="g56"
           transform="translate(206.0854,81.0171)">
          <path
             d="m 0,0 v -22.415 c 0,-10.544 5.277,-16.574 15.447,-16.574 10.174,0 15.448,6.028 15.448,16.574 V 0 h -9.797 v -23.075 c 0,-4.706 -2.073,-6.404 -5.369,-6.404 -3.295,0 -5.368,1.698 -5.368,6.404 l 0,23.075 z m -25.58,-28.725 h -2.013 v 19.307 h 1.164 c 15.035,0 13.853,-19.307 0.849,-19.307 m -12.374,-9.42 h 12.288 C 0.99,-38.145 2.662,0 -26.851,0 h -11.103 z"
             style="fill:#5c9fb5;fill-opacity:1;fill-rule:nonzero;stroke:none"
             id="path58" />
        </g>
        <g
           id="g60"
           transform="translate(195.3203,39.7568)">
          <path
             d="m 0,0 c 4.156,0 7.525,-3.367 7.525,-7.521 0,-4.155 -3.369,-7.524 -7.525,-7.524 -4.154,0 -7.523,3.369 -7.523,7.524 C -7.523,-3.367 -4.154,0 0,0"
             style="fill:#5c9fb5;fill-opacity:1;fill-rule:evenodd;stroke:none"
             id="path62" />
        </g>
        <g
           id="g64"
           transform="translate(169.3018,30.6787)">
          <path
             d="M 0,0 C -0.059,0.768 -0.098,1.574 -0.116,2.391 -0.124,2.734 -0.13,4.281 -0.13,5.459 H 11.214 C 11.2,4.457 11.198,2.072 11.216,1.635 12.05,-24.805 55.53,-24.518 56.27,1.721 c 0.012,0.414 0.008,2.754 0,3.738 h 11.342 c 0,-1.139 -0.004,-2.605 -0.01,-2.91 C 67.586,1.678 67.543,0.816 67.481,0 64.471,-39.512 3.014,-39.512 0,0"
             style="fill:#5c9fb5;fill-opacity:1;fill-rule:evenodd;stroke:none"
             id="path66" />
        </g>
        <g
           id="g68"
           transform="translate(338.1655,80.9907)">
          <path
             d="M 0,0 H 33.174 V -11.398 H 12.539 V -32.48 h 16.189 v -11.4 H 12.539 V -79.798 H 0 Z"
             style="fill:#000000;fill-opacity:1;fill-rule:nonzero;stroke:none"
             id="path70" />
        </g>
      </g>
    </g>
  </g>
</svg>
